<svg xmlns="http://www.w3.org/2000/svg" xmlns:xlink="http://www.w3.org/1999/xlink" xml:space="preserve" width="341" height="341">
  <defs>
    <linearGradient id="b">
      <stop offset="0" style="stop-color:#24334a;stop-opacity:1"/>
      <stop offset="1" style="stop-color:#24334a;stop-opacity:0"/>
    </linearGradient>
    <linearGradient id="a">
      <stop offset=".5" style="stop-color:#32435e;stop-opacity:1"/>
      <stop offset="1" style="stop-color:#101c2c;stop-opacity:1"/>
    </linearGradient>
    <linearGradient xlink:href="#b" id="d" x1="-196.4" x2="-88.1" y1="-750.3" y2="-750.3" gradientTransform="matrix(.85 0 0 .85 83 432)" gradientUnits="userSpaceOnUse"/>
    <radialGradient xlink:href="#a" id="c" cx="679.4" cy="81.2" r="168.9" fx="679.4" fy="81.2" gradientTransform="matrix(1.01 0 0 1.01 -519 -13)" gradientUnits="userSpaceOnUse"/>
  </defs>
  <g transform="translate(20 27)">
    <path d="M149-24A167 167 0 0 0-18 144a167 167 0 0 0 167 167 167 167 0 0 0 167-167A167 167 0 0 0 149-24ZM76 41h161v42l-39 47a49 49 0 0 1 2 22 49 49 0 0 1-54 43 49 49 0 0 1-2-1l-10 13h107v45H66v-44l40-47a49 49 0 0 1-2-20 49 49 0 0 1 47-43 49 49 0 0 1 7 0l10-12H76Z" style="fill:url(#c);fill-opacity:1;fill-rule:evenodd;stroke:none;stroke-width:7.65256;stroke-linecap:round;stroke-dasharray:none;stroke-opacity:1"/>
    <ellipse cx="-38" cy="-207.8" rx="45" ry="45.1" style="fill:none;fill-rule:evenodd;stroke:url(#d);stroke-width:7.08845;stroke-linecap:round;stroke-dasharray:none;stroke-opacity:1" transform="rotate(144)"/>
  </g>
  <style>
    @media (prefers-color-scheme:dark){:root{filter:invert(100%)}}
  </style>
</svg>